<svg width="17" height="15" viewBox="0 0 17 15" fill="none" xmlns="http://www.w3.org/2000/svg">
<path fill-rule="evenodd" clip-rule="evenodd" d="M0.0999753 7.5C0.0999752 7.00294 0.502919 6.6 0.999975 6.6L13.7655 6.6L8.77618 1.84875C8.41788 1.50423 8.40671 0.934496 8.75122 0.576201C9.09574 0.217907 9.66548 0.206735 10.0238 0.551249L16.6238 6.85125C16.8002 7.02093 16.9 7.25518 16.9 7.5C16.9 7.74481 16.8002 7.97906 16.6238 8.14875L10.0238 14.4487C9.66548 14.7933 9.09574 14.7821 8.75123 14.4238C8.40671 14.0655 8.41788 13.4958 8.77618 13.1512L13.7655 8.4L0.999975 8.4C0.502919 8.4 0.0999753 7.99706 0.0999753 7.5Z" fill="white"/>
</svg>
